<svg xmlns="http://www.w3.org/2000/svg" xmlns:xlink="http://www.w3.org/1999/xlink" width="989" height="528" viewBox="0 0 989 528">
  <defs>
    <clipPath id="clip-path">
      <rect id="Rectangle_1" data-name="Rectangle 1" width="989" height="528" transform="translate(62 1297)" fill="#fff" stroke="#707070" stroke-width="1"/>
    </clipPath>
    <linearGradient id="linear-gradient" y1="0.5" x2="1" y2="0.5" gradientUnits="objectBoundingBox">
      <stop offset="0" stop-color="#622a90"/>
      <stop offset="1" stop-color="#ba3095"/>
    </linearGradient>
  </defs>
  <g id="Mask_Group_1" data-name="Mask Group 1" transform="translate(-62 -1297)" clip-path="url(#clip-path)">
    <g id="Group_3" data-name="Group 3" transform="translate(-422.55 581.963)">
      <g id="Group_1" data-name="Group 1">
        <path id="Path_1" data-name="Path 1" d="M593.9,1127.952c-20.611,0-37.2-13.088-45.638-28.922-12.053-22.618-9.161-54.511,19.684-71.706a109.509,109.509,0,0,1,55.372-14.742h10.945a42.373,42.373,0,0,0,43.083-42.372,3.626,3.626,0,0,0-3.483-3.615c-27.272-.027-46.6-7.941-60.824-24.9-13.235-15.788-28.6-23.3-46.608-22.743,1.244,9.58,3.686,16.517,8.454,26.594,9.8,20.716,9.859,40.559.163,55.874-8.969,14.165-25.392,22.623-43.926,22.623-22.222,0-40.449-16.17-45.355-40.239-5.7-27.979,8.039-64.5,51.585-83.015l.966-.363q1.7-.544,3.376-1.043c-.08-4.853-.094-10.2-.094-16.2,0-18.12,9.279-34.152,25.457-43.99a65.088,65.088,0,0,1,63.406-1.619l.736.381L767.128,934.72c18.477,9.9,29.476,27.477,29.476,47.193,0,19.833-11.13,37.5-29.8,47.369l-146.519,91.74-.417.218q-1.055.544-2.119,1.05A55.537,55.537,0,0,1,593.9,1127.952Zm29.433-91.8a85.628,85.628,0,0,0-43.317,11.422c-17.023,10.153-17.768,27.591-10.953,40.375,6.143,11.527,19.943,21.853,38.6,13.028q.468-.219.925-.451l146.483-91.711.426-.221c10.973-5.686,17.523-15.657,17.523-26.675s-6.551-20.988-17.523-26.673l-.736-.383L618.917,858.153a41.337,41.337,0,0,0-39.619,1.186,27.7,27.7,0,0,0-14.142,23.85c0,4.5.011,8.549.049,12.234,25.383-.959,47.784,9.551,65.88,31.128,9.555,11.393,22.786,16.473,42.906,16.473h.212a27.319,27.319,0,0,1,26.717,27.185,65.936,65.936,0,0,1-66.807,65.942ZM543.324,923.941c-30.709,14.435-37.858,38.513-34.464,55.169,2.009,9.859,9.043,21.374,22.259,21.374,10.412,0,19.389-4.351,24.012-11.661,5.222-8.248,4.67-20.032-1.554-33.179a107.151,107.151,0,0,1-10.253-31.71Z" fill="url(#linear-gradient)"/>
      </g>
      <g id="Group_2" data-name="Group 2">
        <path id="Path_2" data-name="Path 2" d="M921.669,980.4c-4.485-3.842-11.759-6.739-22.228-8.855a65.241,65.241,0,0,1-10.911-3.022,10.392,10.392,0,0,1-4.5-2.865A5.784,5.784,0,0,1,883,962.095a4.747,4.747,0,0,1,3.12-4.426,20.767,20.767,0,0,1,9.62-1.938,28.027,28.027,0,0,1,8.844,1.217,19.111,19.111,0,0,1,6.708,4.135,11.278,11.278,0,0,0,7.733,3.1,8.236,8.236,0,0,0,5.031-1.523,7.29,7.29,0,0,0,3.021-5.7,8.826,8.826,0,0,0-2.208-5.577,29.5,29.5,0,0,0-12.022-8.578,44.419,44.419,0,0,0-16.832-3.046,42.427,42.427,0,0,0-14.479,2.464,26.331,26.331,0,0,0-11.3,7.6,18.965,18.965,0,0,0-4.456,12.691c0,12.124,9.451,20.092,28.1,23.684,6.57,1.244,11.241,2.763,13.891,4.514a6.612,6.612,0,0,1,3.485,5.62,6.153,6.153,0,0,1-3.488,5.517,22.25,22.25,0,0,1-11.333,2.375,27.738,27.738,0,0,1-10.545-2.016,19.761,19.761,0,0,1-7.3-4.663c-3.615-3.61-7.809-4.17-12.49-.725a8.207,8.207,0,0,0-3.5,6.857,7.638,7.638,0,0,0,2.333,5.579,35.917,35.917,0,0,0,13.714,8.054A55.377,55.377,0,0,0,897,1020.326a41.657,41.657,0,0,0,16.885-3.135,24.976,24.976,0,0,0,10.963-8.831,22.286,22.286,0,0,0,3.769-12.581A19.4,19.4,0,0,0,921.669,980.4Z" fill="#fff"/>
        <path id="Path_3" data-name="Path 3" d="M992.722,944.925h0a40.992,40.992,0,0,0-20.509-5.158,41.667,41.667,0,0,0-20.716,5.156,36.7,36.7,0,0,0-14.278,14.352,45.014,45.014,0,0,0,0,41.548,36.691,36.691,0,0,0,14.278,14.354,44.072,44.072,0,0,0,41.364,0,36.862,36.862,0,0,0,14.205-14.35,44.736,44.736,0,0,0-.076-41.557,37.32,37.32,0,0,0-14.269-14.345Zm-20.511,59.3a22.744,22.744,0,0,1-11.761-3.082,21.79,21.79,0,0,1-8.134-8.521,25.969,25.969,0,0,1-2.97-12.51,26.391,26.391,0,0,1,2.975-12.592,21.7,21.7,0,0,1,8.128-8.583,24.039,24.039,0,0,1,23.521,0,21.213,21.213,0,0,1,8.052,8.57,26.9,26.9,0,0,1,2.912,12.6,26.483,26.483,0,0,1-2.9,12.53,21.309,21.309,0,0,1-8.055,8.507,22.737,22.737,0,0,1-11.767,3.077Z" fill="#fff"/>
        <path id="Path_4" data-name="Path 4" d="M1034.279,968.6a10.982,10.982,0,0,0-8.006,3.376,11.147,11.147,0,0,0-3.372,8.144,11.37,11.37,0,0,0,19.467,7.988,11.486,11.486,0,0,0-8.088-19.508Z" fill="#fff"/>
        <path id="Path_5" data-name="Path 5" d="M1081.92,927.763a14.28,14.28,0,0,1,11.143-4.543,9.1,9.1,0,0,0,6.271-2.265,8.027,8.027,0,0,0,0-11.85,9.1,9.1,0,0,0-6.269-2.265,34.142,34.142,0,0,0-17.191,4.328,30.247,30.247,0,0,0-11.785,12.231,38.129,38.129,0,0,0-4.17,18.109v.544h-4.15a8.456,8.456,0,0,0-5.943,2.145,7.513,7.513,0,0,0-2.384,5.767,7.192,7.192,0,0,0,2.384,5.49,8.45,8.45,0,0,0,5.943,2.147h4.15v52.25a8.568,8.568,0,0,0,2.562,6.432,8.426,8.426,0,0,0,6.045,2.451,9.076,9.076,0,0,0,6.686-2.471,8.7,8.7,0,0,0,2.471-6.413V957.6h12.329a8.463,8.463,0,0,0,5.943-2.147,7.194,7.194,0,0,0,2.384-5.49,7.524,7.524,0,0,0-2.384-5.769,8.471,8.471,0,0,0-5.943-2.143h-12.329v-1.931a17.4,17.4,0,0,1,4.237-12.357Z" fill="#fff"/>
        <path id="Path_6" data-name="Path 6" d="M1157.082,945.074h0a39.591,39.591,0,0,0-20.252-5.309,40.334,40.334,0,0,0-20.38,5.3,38.434,38.434,0,0,0-14.468,14.541,41.071,41.071,0,0,0-5.225,20.509,43.369,43.369,0,0,0,4.852,20.462,36.985,36.985,0,0,0,13.411,14.491,36.428,36.428,0,0,0,43.982-4.554v.515a8.884,8.884,0,0,0,17.768,0V980.116a40.633,40.633,0,0,0-5.3-20.518A39.239,39.239,0,0,0,1157.082,945.074Zm-20.253,10.795a21.909,21.909,0,0,1,19.749,11.8,26.106,26.106,0,0,1,2.975,12.452,25.7,25.7,0,0,1-2.972,12.378,22.5,22.5,0,0,1-39.591-.014,25.263,25.263,0,0,1-3.03-12.363A25.655,25.655,0,0,1,1117,967.677a22.7,22.7,0,0,1,8.22-8.675,22.119,22.119,0,0,1,11.614-3.133Z" fill="#fff"/>
        <path id="Path_7" data-name="Path 7" d="M1206.9,971.97a11.377,11.377,0,0,0-19.383,8.144,11.388,11.388,0,1,0,19.385-8.144Z" fill="#fff"/>
        <path id="Path_8" data-name="Path 8" d="M1298.566,910.351a9.468,9.468,0,0,0-12.733-.018,8.584,8.584,0,0,0-2.562,6.431v32.816a36.4,36.4,0,0,0-57.39,9.935,43.369,43.369,0,0,0-4.854,20.464,41.035,41.035,0,0,0,5.227,20.509,38.4,38.4,0,0,0,14.466,14.541,40.342,40.342,0,0,0,20.38,5.3,39.21,39.21,0,0,0,34.629-19.831,40.644,40.644,0,0,0,5.3-20.518V916.763a8.724,8.724,0,0,0-2.469-6.411Zm-37.465,93.877a22.068,22.068,0,0,1-11.6-3.137,22.664,22.664,0,0,1-8.22-8.675,25.608,25.608,0,0,1-3.033-12.437,25.253,25.253,0,0,1,3.03-12.363A22.529,22.529,0,0,1,1272.7,959a22.353,22.353,0,0,1,8.146,8.6,25.7,25.7,0,0,1,2.97,12.378,26.094,26.094,0,0,1-2.974,12.452,21.923,21.923,0,0,1-19.751,11.8Z" fill="#fff"/>
        <path id="Path_9" data-name="Path 9" d="M1367.864,944.925a40.975,40.975,0,0,0-20.509-5.16,41.654,41.654,0,0,0-20.714,5.156,36.7,36.7,0,0,0-14.281,14.354,45.01,45.01,0,0,0,0,41.546,36.724,36.724,0,0,0,14.281,14.354,44.068,44.068,0,0,0,41.363,0,36.857,36.857,0,0,0,14.2-14.35,44.737,44.737,0,0,0-.072-41.557,37.318,37.318,0,0,0-14.271-14.343Zm-20.509,59.3a22.743,22.743,0,0,1-11.761-3.082,21.79,21.79,0,0,1-8.133-8.521,25.958,25.958,0,0,1-2.968-12.51,26.38,26.38,0,0,1,2.973-12.592,21.7,21.7,0,0,1,8.128-8.583,24.039,24.039,0,0,1,23.521,0,21.186,21.186,0,0,1,8.05,8.57,26.9,26.9,0,0,1,2.914,12.6,26.47,26.47,0,0,1-2.9,12.53,21.293,21.293,0,0,1-8.054,8.507A22.737,22.737,0,0,1,1347.355,1004.228Z" fill="#fff"/>
        <path id="Path_10" data-name="Path 10" d="M1468.381,959.265a37.35,37.35,0,0,0-14.27-14.339h0a40.988,40.988,0,0,0-20.509-5.158,41.665,41.665,0,0,0-20.714,5.156,36.707,36.707,0,0,0-14.28,14.354,42.372,42.372,0,0,0-5.076,20.841,44.563,44.563,0,0,0,4.714,20.654,35.548,35.548,0,0,0,13.284,14.374,36.624,36.624,0,0,0,19.309,5.183,32,32,0,0,0,16.883-4.56,33.055,33.055,0,0,0,8.612-7.56v.881a30.208,30.208,0,0,1-3.117,14.194,21.768,21.768,0,0,1-8.186,8.85,22.239,22.239,0,0,1-11.422,3.006,29.4,29.4,0,0,1-12.147-2.4,22.676,22.676,0,0,1-8.732-6.864,8.61,8.61,0,0,0-7.125-3.626,9,9,0,0,0-4.935,1.587,7.766,7.766,0,0,0-3.67,6.463,8.066,8.066,0,0,0,1.917,5.009A40.808,40.808,0,0,0,1414,1047.126a45.935,45.935,0,0,0,19.334,4.116,40.356,40.356,0,0,0,20.814-5.45,38,38,0,0,0,14.323-14.91,43.409,43.409,0,0,0,5.077-20.823V980.116a41.953,41.953,0,0,0-5.164-20.852Zm-34.781-3.4a22.717,22.717,0,0,1,11.759,3.082,21.232,21.232,0,0,1,8.053,8.57,26.9,26.9,0,0,1,2.91,12.6,26.482,26.482,0,0,1-2.9,12.53,21.325,21.325,0,0,1-8.057,8.507,24.023,24.023,0,0,1-23.519,0,21.782,21.782,0,0,1-8.135-8.521,25.977,25.977,0,0,1-2.966-12.51,26.394,26.394,0,0,1,2.972-12.591,21.69,21.69,0,0,1,8.13-8.583,22.718,22.718,0,0,1,11.759-3.088Z" fill="#fff"/>
      </g>
    </g>
  </g>
</svg>